<svg xmlns="http://www.w3.org/2000/svg" xmlns:xlink="http://www.w3.org/1999/xlink" version="1.1" width="1000" height="1000" viewBox="0 0 1000 1000" xml:space="preserve">
<desc>Created with Fabric.js 3.5.0</desc>
<defs>
</defs>
<rect x="0" y="0" width="100%" height="100%" fill="rgba(255,255,255,0)"/>
<g transform="matrix(18.75 0 0 18.75 500 500)" id="473816">
<g style="" vector-effect="non-scaling-stroke">
		<g transform="matrix(1 0 0 1 0 0)" id="logo-86">
<path style="stroke: none; stroke-width: 1; stroke-dasharray: none; stroke-linecap: butt; stroke-dashoffset: 0; stroke-linejoin: miter; stroke-miterlimit: 4; is-custom-font: none; font-file-url: none; fill: rgb(0,125,252); fill-rule: evenodd; opacity: 1;" transform=" translate(-20, -20)" d="M 25.5557 11.6853 C 23.9112 10.5865 21.9778 10 20 10 V 0 C 23.9556 0 27.8224 1.17298 31.1114 3.37061 C 34.4004 5.56823 36.9638 8.69181 38.4776 12.3463 C 39.9913 16.0008 40.3874 20.0222 39.6157 23.9018 C 38.844 27.7814 36.9392 31.3451 34.1421 34.1421 C 31.3451 36.9392 27.7814 38.844 23.9018 39.6157 C 20.0222 40.3874 16.0008 39.9913 12.3463 38.4776 C 8.69181 36.9638 5.56823 34.4004 3.37061 31.1114 C 1.17298 27.8224 0 23.9556 0 20 H 10 C 10 21.9778 10.5865 23.9112 11.6853 25.5557 C 12.7841 27.2002 14.3459 28.4819 16.1732 29.2388 C 18.0004 29.9957 20.0111 30.1937 21.9509 29.8078 C 23.8907 29.422 25.6725 28.4696 27.0711 27.0711 C 28.4696 25.6725 29.422 23.8907 29.8078 21.9509 C 30.1937 20.0111 29.9957 18.0004 29.2388 16.1732 C 28.4819 14.3459 27.2002 12.7841 25.5557 11.6853 Z" stroke-linecap="round"/>
</g>
		<g transform="matrix(1 0 0 1 -10 -10)" id="logo-86">
<path style="stroke: none; stroke-width: 1; stroke-dasharray: none; stroke-linecap: butt; stroke-dashoffset: 0; stroke-linejoin: miter; stroke-miterlimit: 4; is-custom-font: none; font-file-url: none; fill: rgb(0,125,252); fill-rule: evenodd; opacity: 1;" transform=" translate(-10, -10)" d="M 10 5.16562e-7 C 10 1.31322 9.74135 2.61358 9.2388 3.82683 C 8.73625 5.04009 7.99966 6.14248 7.07107 7.07107 C 6.14249 7.99966 5.0401 8.73625 3.82684 9.2388 C 2.61358 9.74134 1.31322 10 0.0000054439 10 L 0.00000500679 20 C 2.62644 20 5.22716 19.4827 7.65368 18.4776 C 10.0802 17.4725 12.285 15.9993 14.1421 14.1421 C 15.9993 12.285 17.4725 10.0802 18.4776 7.65367 C 19.4827 5.22715 20 2.62643 20 -0.00000381469 L 10 5.16562e-7 Z" stroke-linecap="round"/>
</g>
</g>
</g>
</svg>